<?xml version="1.0" encoding="utf-8"?>
<!-- Generator: Adobe Illustrator 19.2.0, SVG Export Plug-In . SVG Version: 6.00 Build 0)  -->
<svg version="1.1" id="Calque_1" xmlns="http://www.w3.org/2000/svg" xmlns:xlink="http://www.w3.org/1999/xlink" x="0px" y="0px"
	 viewBox="0 0 500 500" style="enable-background:new 0 0 500 500;" xml:space="preserve">
<style type="text/css">
	.st0{fill:#5392A1;}
</style>
<g>
	<path class="st0" d="M83.1,268.1c14.9,25.6,16.8,55.2,26.4,82.6c12.7,36.5,46.5,31.7,59.4-3.4c11.4-30.9,10.2-66.8,24.5-96.3
		c3.7-7.7,13.9-5.8,18.1,0c17.4,24.4,25.8,138.2,71.4,124.2c21.3-6.6,28.2-34.8,32.1-53.9c5.7-28.5,7.2-57.8,7.9-86.8
		c1.2-48.1-5.4-108,37.5-141.8c18.1-14.3,38.8-21.9,60.5-24.9C376.1,26,316.1,0.3,250,0.3C116.2,0.3,7,105.4,0.5,237.5
		C32.4,232.7,65.4,237.8,83.1,268.1z"/>
	<path class="st0" d="M348.3,151.1c-5.3,21.5-3.8,44.8-4.2,66.8c-0.6,29.6-1.4,59.4-5.6,88.7c-5.4,37.7-24.1,106-77,87.8
		c-42.4-14.5-43.4-69.5-56.9-109.3c-1.4,8.1-2.4,16.3-3.9,23.8c-3.9,19.3-8.1,39.6-17.4,57.1c-14.2,26.8-47.1,45-74.1,22.9
		c-22.3-18.2-24.6-52.2-31.7-78.1c-3.9-14.5-8.6-31-19.8-41.7c-15-14.3-35.5-14.3-54.8-11c-0.9,0.2-1.7,0.2-2.6,0.1
		C4.7,392.5,114.7,500,250,500c138,0,249.9-111.9,249.9-249.8c0-61.9-22.6-118.5-59.9-162.2C397.7,88.2,360,103.4,348.3,151.1z
		 M396.7,232.8c-11.4,0-20.7-9.2-20.7-20.7c0-11.4,9.2-20.7,20.7-20.7c11.4,0,20.6,9.3,20.6,20.7
		C417.4,223.6,408.1,232.8,396.7,232.8z"/>
</g>
</svg>
