<?xml version="1.0" encoding="utf-8"?>
<!-- Generator: Adobe Illustrator 19.1.0, SVG Export Plug-In . SVG Version: 6.00 Build 0)  -->
<svg version="1.1" id="Calque_1" xmlns="http://www.w3.org/2000/svg" xmlns:xlink="http://www.w3.org/1999/xlink" x="0px" y="0px"
	 viewBox="0 0 69.3 83.1" style="enable-background:new 0 0 69.3 83.1;" xml:space="preserve">
<style type="text/css">
	.st0{fill:#EADBC6;}
	.st1{fill:#2A6972;}
</style>
<path class="st0" d="M57.8,11.9c-12.4-12.4-32.6-12.4-45,0c-12.4,12.4-12.4,32.6,0,45l22.5,22.5l22.5-22.5
	C70.2,44.4,70.2,24.3,57.8,11.9z"/>
<g>
	<path class="st1" d="M53.4,11.7c-0.4,0.6-0.6,1.4-0.5,2.2c0.3,1.4,1.4,2.4,2.8,2.4c0.2,0,0.4,0,0.5,0c0.4-0.1,0.8-0.3,1.2-0.5
		C56.3,14.2,54.9,12.9,53.4,11.7z"/>
	<path class="st1" d="M24.5,39.1c-1-0.9-2.3-1.4-4.1-1.4c-0.7,0-1.5,0.1-2.4,0.2L12,39l-0.1,0l0-0.1l-0.2-0.8l0-0.1l0.1,0l6.1-1.1
		l0,0c0.5-0.1,1.2-0.2,1.7-0.3c1.6-0.8,2.7-1.9,3.4-3.3c0.7-1.3,0.8-2.9,0.5-4.6c-0.4-2-1.2-3.6-2.4-4.6c-1.2-1-2.9-1.5-4.9-1.5
		c-0.9,0-1.8,0.1-2.9,0.3c-2.5,0.5-4.4,1.3-5.8,2.5c-0.9,2.8-1.4,5.8-1.4,9c0,7,2.5,13.5,6.7,18.5l0,0c0.8,0.2,1.6,0.2,2.5,0.2
		c1,0,2-0.1,3.1-0.3c3-0.6,5.3-1.7,6.7-3.3c1.4-1.6,1.9-3.6,1.4-6.1C26.2,41.5,25.5,40,24.5,39.1z"/>
	<path class="st1" d="M58.2,16.5c-0.5,0.4-1.1,0.6-1.7,0.7c-0.2,0-0.5,0.1-0.7,0.1c-1.9,0-3.5-1.3-3.9-3.2c-0.1-0.6-0.1-1.1,0-1.7
		c0.1-0.5,0.3-1,0.6-1.4c-4.8-3.6-10.8-5.7-17.4-5.7c-12.3,0-22.7,7.6-27,18.3c1.3-0.8,2.9-1.4,5-1.7c1.1-0.2,2.1-0.3,3-0.3
		c2.3,0,4.2,0.6,5.6,1.8c1.4,1.2,2.3,3,2.8,5.2c0.3,1.7,0.2,3.3-0.4,4.7c-0.5,1.3-1.5,2.5-2.7,3.4c0.8,0.1,1.5,0.2,2.1,0.5
		c0.7,0.3,1.3,0.7,1.9,1.3c0.5,0.5,1,1.2,1.4,2c0.4,0.8,0.6,1.7,0.8,2.8c0.2,1.3,0.2,2.6,0,3.8c-0.3,1.1-0.8,2.2-1.6,3.1
		c-0.8,0.9-1.8,1.7-3,2.3c-1.2,0.6-2.7,1.1-4.3,1.4c-1.2,0.2-2.3,0.3-3.4,0.3c-0.5,0-1,0-1.4-0.1c5.3,5.7,12.9,9.3,21.4,9.3
		c16.1,0,29.1-13,29.1-29.1C64.3,27.6,62,21.5,58.2,16.5z M50.1,45.7c-1.5,1.8-4,3.1-7.2,3.7c-1.2,0.2-2.4,0.3-3.4,0.3
		c-2.9,0-5.2-0.8-6.8-2.3l-0.2-0.2l-0.1-0.1l0.1-0.1l0.6-0.7l0.1-0.1l0.1,0.1l0.2,0.2c1.3,1.3,3.4,2,6.1,2c1,0,2-0.1,3.1-0.3
		c3-0.6,5.3-1.7,6.7-3.3c1.4-1.6,1.9-3.6,1.4-6.1c-0.4-2-1-3.4-2-4.4c-1-0.9-2.3-1.4-4.1-1.4c-0.7,0-1.5,0.1-2.4,0.2l-6.1,1.1
		l-0.1,0l0-0.1l-0.2-0.8l0-0.1l0.1,0l6.1-1.1c0.6-0.1,1.3-0.2,1.7-0.3c1.6-0.8,2.7-1.9,3.4-3.3c0.7-1.3,0.8-2.9,0.5-4.6
		c-0.4-2-1.2-3.6-2.4-4.6c-1.2-1-2.9-1.5-4.9-1.5c-0.9,0-1.8,0.1-2.9,0.3c-3.9,0.7-6.4,2.3-7.5,4.8l-0.1,0.3l0,0.1l-0.1-0.1L29,23.2
		l-0.1,0l0-0.1l0.1-0.2c1.4-2.9,4-4.6,8.3-5.4c1.1-0.2,2.1-0.3,3-0.3c2.3,0,4.2,0.6,5.6,1.8c1.4,1.2,2.3,3,2.8,5.2
		c0.3,1.7,0.2,3.3-0.4,4.7c-0.5,1.3-1.5,2.5-2.7,3.4c0.8,0.1,1.5,0.2,2.1,0.5c0.7,0.3,1.3,0.7,1.9,1.3c0.5,0.5,1,1.2,1.4,2
		c0.4,0.8,0.6,1.7,0.8,2.8C52.2,41.5,51.7,43.9,50.1,45.7z"/>
</g>
</svg>
